<svg width="15" height="16" viewBox="0 0 15 16" fill="none" xmlns="http://www.w3.org/2000/svg">
<g clip-path="url(#clip0_2652_78)">
<path d="M7.50049 1.12463V14.8746" stroke="#142A3B" stroke-width="0.921053" stroke-linecap="round" stroke-linejoin="round"/>
<path d="M10.6248 3.62476H5.93726C5.35709 3.62476 4.8007 3.85522 4.39046 4.26546C3.98022 4.6757 3.74976 5.23209 3.74976 5.81226C3.74976 6.39242 3.98022 6.94882 4.39046 7.35905C4.8007 7.76929 5.35709 7.99976 5.93726 7.99976H9.06226C9.64242 7.99976 10.1988 8.23022 10.6091 8.64046C11.0193 9.0507 11.2498 9.60709 11.2498 10.1873C11.2498 10.7674 11.0193 11.3238 10.6091 11.7341C10.1988 12.1443 9.64242 12.3748 9.06226 12.3748H3.74976" stroke="#142A3B" stroke-width="0.921053" stroke-linecap="round" stroke-linejoin="round"/>
</g>
<defs>
<clipPath id="clip0_2652_78">
<rect width="15" height="15" fill="white" transform="translate(0 0.5)"/>
</clipPath>
</defs>
</svg>
