<svg width="8" height="5" viewBox="0 0 8 5" fill="none" xmlns="http://www.w3.org/2000/svg">
<path d="M7.62884 2.5558C6.88734 3.92659 5.58696 4.7561 4.14796 4.7561C2.70896 4.7561 1.40637 3.92659 0.671472 2.5558L0.609863 2.45238L0.667071 2.34677C1.40857 0.975976 2.70896 0.14646 4.14796 0.14646C5.58696 0.14646 6.88954 0.964974 7.62884 2.34677L7.68605 2.45238L7.62884 2.5558ZM4.14796 0.597522C2.90918 0.597522 1.77163 1.28842 1.11153 2.45238C1.77163 3.61634 2.90918 4.30724 4.14796 4.30724C5.38673 4.30724 6.51109 3.61414 7.18218 2.45238C6.51109 1.28842 5.38453 0.597522 4.14796 0.597522Z" fill="black" fill-opacity="0.47"/>
<path d="M4.21129 3.95516C3.91295 3.95298 3.62195 3.86244 3.37504 3.69498C3.12813 3.52751 2.93639 3.29063 2.82403 3.01426C2.71167 2.73788 2.68373 2.4344 2.74375 2.14216C2.80376 1.84991 2.94903 1.58201 3.16122 1.37228C3.37341 1.16255 3.64298 1.0204 3.93591 0.963797C4.22883 0.90719 4.53196 0.938659 4.80701 1.05423C5.08206 1.1698 5.31669 1.36429 5.48127 1.61313C5.64585 1.86198 5.733 2.15401 5.7317 2.45235C5.73084 2.65094 5.69079 2.84741 5.61386 3.0305C5.53693 3.21359 5.42463 3.37969 5.28338 3.5193C5.14214 3.65891 4.97474 3.76927 4.79077 3.84406C4.6068 3.91886 4.40987 3.95661 4.21129 3.95516ZM4.21129 1.3764C4.00055 1.37857 3.79516 1.44296 3.6209 1.56149C3.44665 1.68001 3.3113 1.84738 3.23185 2.04258C3.15241 2.23777 3.13241 2.45209 3.17437 2.65862C3.21634 2.86514 3.31839 3.05466 3.46771 3.20338C3.61703 3.35209 3.80697 3.45337 4.01366 3.49449C4.22036 3.53561 4.43459 3.51474 4.62946 3.4345C4.82433 3.35426 4.99115 3.21822 5.10896 3.04348C5.22677 2.86874 5.29033 2.66309 5.29164 2.45235C5.29222 2.31052 5.26465 2.16998 5.21051 2.03889C5.15637 1.9078 5.07674 1.78875 4.97625 1.68867C4.87575 1.58858 4.75639 1.50944 4.62508 1.45584C4.49376 1.40224 4.35311 1.37523 4.21129 1.3764Z" fill="black" fill-opacity="0.47"/>
</svg>
