<svg width="11" height="10" viewBox="0 0 11 10" fill="none" xmlns="http://www.w3.org/2000/svg">
<path d="M9.30602 1.69398C9.08611 1.47397 8.825 1.29944 8.53762 1.18036C8.25024 1.06129 7.94222 1 7.63115 1C7.32007 1 7.01205 1.06129 6.72467 1.18036C6.43729 1.29944 6.17619 1.47397 5.95628 1.69398L5.49989 2.15038L5.04349 1.69398C4.59929 1.24978 3.99682 1.00023 3.36862 1.00023C2.74043 1.00023 2.13796 1.24978 1.69375 1.69398C1.24955 2.13819 1 2.74066 1 3.36885C1 3.99705 1.24955 4.59952 1.69375 5.04372L2.15014 5.50011L5.49989 8.84985L8.84962 5.50011L9.30602 5.04372C9.52603 4.82381 9.70056 4.56271 9.81963 4.27533C9.93871 3.98795 10 3.67993 10 3.36885C10 3.05778 9.93871 2.74976 9.81963 2.46238C9.70056 2.175 9.52603 1.91389 9.30602 1.69398V1.69398Z" stroke="#142A3B" stroke-width="0.653623" stroke-linecap="round" stroke-linejoin="round"/>
</svg>
