<svg width="21" height="21" viewBox="0 0 21 21" fill="none" xmlns="http://www.w3.org/2000/svg">
<path d="M19.7591 7.64113L13.7599 6.75907L11.0782 1.25875C11.0049 1.10816 10.8844 0.986247 10.7355 0.912144C10.3622 0.725693 9.90856 0.881069 9.7219 1.25875L7.04011 6.75907L1.04094 7.64113C0.875546 7.66503 0.724327 7.74392 0.608549 7.86344C0.46858 8.00898 0.391451 8.20479 0.394109 8.40783C0.396768 8.61088 0.478996 8.80455 0.622726 8.94629L4.9632 13.2275L3.93775 19.2728C3.9137 19.4135 3.92908 19.5581 3.98215 19.6903C4.03521 19.8226 4.12384 19.9371 4.23798 20.021C4.35212 20.1048 4.48721 20.1547 4.62792 20.1648C4.76863 20.175 4.90934 20.145 5.03409 20.0784L10.4 17.2243L15.766 20.0784C15.9125 20.1573 16.0826 20.1836 16.2456 20.1549C16.6567 20.0832 16.9332 19.6888 16.8623 19.2728L15.8368 13.2275L20.1773 8.94629C20.2955 8.82916 20.3734 8.67617 20.3971 8.50885C20.4609 8.09052 20.1726 7.70328 19.7591 7.64113Z" fill="url(#paint0_linear_201_5294)"/>
<defs>
<linearGradient id="paint0_linear_201_5294" x1="-9.96319" y1="-3.30964" x2="30.7753" y2="33.2859" gradientUnits="userSpaceOnUse">
<stop stop-color="#C4B150"/>
<stop offset="1" stop-color="#FFF500"/>
</linearGradient>
</defs>
</svg>
