<svg width="16" height="16" viewBox="0 0 16 16" fill="none" xmlns="http://www.w3.org/2000/svg">
<path opacity="0.9" d="M6.96303 13.7339C9.49982 13.7339 11.5838 11.8149 11.5838 9.35199C11.5838 8.74743 11.5514 8.09935 11.2003 7.09194C10.8491 6.08453 10.7785 5.95457 10.4073 5.33236C10.2487 6.60176 9.40002 7.13105 9.18438 7.28925C9.18438 7.12458 8.67117 5.30531 7.89273 4.21645C7.12846 3.14818 6.0891 2.44746 5.47977 1.97198C5.47977 2.87471 5.21393 4.21674 4.83287 4.9007C4.45212 5.58436 4.38065 5.60935 3.90471 6.11806C3.42909 6.62676 3.21068 6.78407 2.81268 7.40157C2.41499 8.01907 2.34229 8.84153 2.34229 9.44609C2.34229 11.909 4.42624 13.7339 6.96303 13.7339Z" stroke="black" stroke-width="0.9" stroke-linejoin="round"/>
</svg>
