<svg width="23" height="20" viewBox="0 0 23 20" fill="none" xmlns="http://www.w3.org/2000/svg">
<path fill-rule="evenodd" clip-rule="evenodd" d="M10.7876 0.0428669C9.23378 0.222324 7.80806 1.07536 7.02154 2.29614C6.91808 2.45671 6.85602 2.51658 6.81022 2.50001C6.68272 2.45387 6.12119 2.36643 5.79118 2.3413C5.41942 2.31306 4.65019 2.37601 4.25121 2.46736C3.10084 2.73078 2.0744 3.36307 1.35737 4.25002C0.0615213 5.85295 0.0369237 8.06232 1.29669 9.70067C1.90802 10.4957 2.80364 11.1092 3.83193 11.4373L4.22971 11.5643V13.492V15.4196H11.3682H18.5067V13.492V11.5643L18.9044 11.4373C19.9876 11.0917 20.8978 10.4474 21.5258 9.58168C22.7012 7.96135 22.642 5.81232 21.379 4.25002C20.1911 2.7806 18.2019 2.06746 16.292 2.4263C16.1265 2.45742 15.9686 2.4829 15.9413 2.4829C15.914 2.48293 15.839 2.39861 15.7747 2.29559C14.8044 0.741646 12.7546 -0.184275 10.7876 0.0428669ZM4.25852 16.6291C4.24265 16.6436 4.22971 17.1849 4.22971 17.8321V19.0088H11.3688H18.5079L18.4966 17.8157L18.4852 16.6226L11.3862 16.6126C7.4818 16.6071 4.27434 16.6145 4.25852 16.6291Z" fill="url(#paint0_linear_2652_2515)"/>
<defs>
<linearGradient id="paint0_linear_2652_2515" x1="-7.07277" y1="-3.25683" x2="34.7464" y2="37.873" gradientUnits="userSpaceOnUse">
<stop stop-color="#1D79E4"/>
<stop offset="1" stop-color="#E967CC"/>
</linearGradient>
</defs>
</svg>
