<svg width="22" height="23" viewBox="0 0 22 23" fill="none" xmlns="http://www.w3.org/2000/svg">
<path d="M11.3423 0.938477C5.50502 0.938477 0.771973 5.67152 0.771973 11.5088C0.771973 17.3461 5.50502 22.0791 11.3423 22.0791C17.1796 22.0791 21.9126 17.3461 21.9126 11.5088C21.9126 5.67152 17.1796 0.938477 11.3423 0.938477ZM14.7422 11.6716L9.58922 15.4207C9.56097 15.441 9.52767 15.4532 9.49298 15.4558C9.45829 15.4584 9.42355 15.4514 9.39258 15.4355C9.36162 15.4197 9.33562 15.3956 9.31744 15.3659C9.29927 15.3363 9.28962 15.3022 9.28957 15.2674V7.77379C9.28945 7.73893 9.29899 7.70472 9.31713 7.67495C9.33527 7.64519 9.36129 7.62102 9.39232 7.60514C9.42335 7.58926 9.45818 7.58228 9.49293 7.58498C9.52768 7.58768 9.56101 7.59995 9.58922 7.62042L14.7422 11.3672C14.7666 11.3844 14.7864 11.4072 14.8002 11.4337C14.8139 11.4602 14.821 11.4896 14.821 11.5194C14.821 11.5492 14.8139 11.5786 14.8002 11.6051C14.7864 11.6316 14.7666 11.6544 14.7422 11.6716Z" fill="url(#paint0_linear_2652_2517)"/>
<defs>
<linearGradient id="paint0_linear_2652_2517" x1="1" y1="-2.99999" x2="22" y2="32.5" gradientUnits="userSpaceOnUse">
<stop stop-color="#60C257"/>
<stop offset="0.717014" stop-color="#3CD8ED"/>
</linearGradient>
</defs>
</svg>
